<svg width="140" height="21" viewBox="0 0 140 21" fill="none" xmlns="http://www.w3.org/2000/svg">
<path d="M3.78032 18.5101C3.66387 18.6266 3.50593 18.692 3.34124 18.692H0.620945C0.278007 18.692 0 18.414 0 18.071V10.9345C0 10.7698 0.0654208 10.6118 0.181871 10.4954L8.97781 1.69945C9.09426 1.583 9.2522 1.51758 9.41689 1.51758H21.4604C21.8034 1.51758 22.0814 1.79558 22.0814 2.13852V4.49508C22.0814 4.83802 21.8034 5.11603 21.4604 5.11603H17.4316C17.2669 5.11603 17.109 5.18145 16.9925 5.2979L3.78032 18.5101Z" fill="#81B1F8"/>
<path d="M12.7249 18.8555C12.3819 18.8555 12.1039 18.5775 12.1039 18.2346V15.6779C12.1039 15.5132 12.1693 15.3552 12.2858 15.2388L25.498 2.02657C25.6145 1.91012 25.7724 1.8447 25.9371 1.8447H32.9101C33.253 1.8447 33.531 2.12271 33.531 2.46565V5.18595C33.531 5.35063 33.4656 5.50857 33.3492 5.62502L20.3005 18.6737C20.1841 18.7901 20.0261 18.8555 19.8614 18.8555H12.7249Z" fill="#81B1F8"/>
<path d="M30.0262 11.3315C29.8616 11.3315 29.7036 11.3969 29.5872 11.5133L26.0253 15.0752C25.9089 15.1916 25.8435 15.3496 25.8435 15.5142V18.3981C25.8435 18.741 26.1215 19.0191 26.4644 19.0191H32.9101C33.253 19.0191 33.5311 18.741 33.5311 18.3981V11.9524C33.5311 11.6095 33.253 11.3315 32.9101 11.3315H30.0262Z" fill="#81B1F8"/>
<path d="M67.2998 0V20.1623H64.6499V4.40691L58.0539 15.381H57.7083L51.1123 4.43571V20.1623H48.4336V0H51.4579L57.8811 10.6572L64.2754 0H67.2998Z" fill="#81B1F8"/>
<path d="M81.2892 5.76067H83.7951V20.1623H81.2892V18.0885C80.2715 19.7207 78.7161 20.5368 76.6231 20.5368C74.9333 20.5368 73.5795 20.0087 72.5618 18.9526C71.5441 17.8773 71.0352 16.4275 71.0352 14.6033V5.76067H73.5411V14.4593C73.5411 15.6306 73.8579 16.5427 74.4916 17.1956C75.1253 17.8293 75.999 18.1461 77.1127 18.1461C78.3609 18.1461 79.369 17.7621 80.1371 16.994C80.9052 16.2067 81.2892 15.0065 81.2892 13.3936V5.76067Z" fill="#81B1F8"/>
<path d="M95.4447 8.18015H91.6138V15.9859C91.6138 16.6963 91.7483 17.2052 92.0171 17.5124C92.3051 17.8005 92.7372 17.9541 93.3132 17.9733C93.8893 17.9733 94.5998 17.9541 95.4447 17.9157V20.1623C93.2556 20.4504 91.6523 20.2775 90.6345 19.6439C89.6168 18.991 89.108 17.7717 89.108 15.9859V8.18015H86.2564V5.76067H89.108V2.47709L91.6138 1.7282V5.76067H95.4447V8.18015Z" fill="#81B1F8"/>
<path d="M109.605 5.76067H112.111V20.1623H109.605V17.6852C108.357 19.5863 106.542 20.5368 104.161 20.5368C102.145 20.5368 100.426 19.8071 99.0051 18.3477C97.5841 16.8692 96.8736 15.0737 96.8736 12.9615C96.8736 10.8493 97.5841 9.06345 99.0051 7.60408C100.426 6.12551 102.145 5.38622 104.161 5.38622C106.542 5.38622 108.357 6.33673 109.605 8.23775V5.76067ZM104.478 18.1173C105.937 18.1173 107.156 17.6276 108.136 16.6483C109.115 15.6498 109.605 14.4209 109.605 12.9615C109.605 11.5021 109.115 10.2828 108.136 9.30348C107.156 8.30496 105.937 7.8057 104.478 7.8057C103.038 7.8057 101.828 8.30496 100.848 9.30348C99.8692 10.2828 99.3795 11.5021 99.3795 12.9615C99.3795 14.4209 99.8692 15.6498 100.848 16.6483C101.828 17.6276 103.038 18.1173 104.478 18.1173Z" fill="#81B1F8"/>
<path d="M123.079 5.38622C124.769 5.38622 126.123 5.92389 127.141 6.99921C128.158 8.05533 128.667 9.4955 128.667 11.3197V20.1623H126.161V11.4637C126.161 10.2924 125.844 9.38989 125.211 8.75621C124.577 8.10334 123.703 7.7769 122.59 7.7769C121.341 7.7769 120.333 8.17055 119.565 8.95784C118.797 9.72593 118.413 10.9165 118.413 12.5295V20.1623H115.907V5.76067H118.413V7.83451C119.431 6.20232 120.986 5.38622 123.079 5.38622Z" fill="#81B1F8"/>
<path d="M140 8.18015H136.169V15.9859C136.169 16.6963 136.303 17.2052 136.572 17.5124C136.86 17.8005 137.292 17.9541 137.868 17.9733C138.444 17.9733 139.155 17.9541 140 17.9157V20.1623C137.811 20.4504 136.207 20.2775 135.19 19.6439C134.172 18.991 133.663 17.7717 133.663 15.9859V8.18015H130.812V5.76067H133.663V2.47709L136.169 1.7282V5.76067H140V8.18015Z" fill="#81B1F8"/>
</svg>
