<svg width="120" height="18" viewBox="0 0 120 18" fill="none" xmlns="http://www.w3.org/2000/svg">
<path d="M3.24027 15.8658C3.14046 15.9656 3.00508 16.0217 2.86392 16.0217H0.532239C0.238292 16.0217 0 15.7834 0 15.4895V9.3724C0 9.23124 0.0560755 9.09587 0.15589 8.99605L7.69527 1.45667C7.79508 1.35686 7.93046 1.30078 8.07162 1.30078H18.3947C18.6886 1.30078 18.9269 1.53907 18.9269 1.83302V3.85293C18.9269 4.14687 18.6886 4.38517 18.3947 4.38517H14.9414C14.8002 4.38517 14.6648 4.44124 14.565 4.54106L3.24027 15.8658Z" fill="#1A1919"/>
<path d="M10.907 16.1619C10.6131 16.1619 10.3748 15.9236 10.3748 15.6297V13.4382C10.3748 13.297 10.4309 13.1616 10.5307 13.0618L21.8554 1.73706C21.9553 1.63725 22.0906 1.58117 22.2318 1.58117H28.2087C28.5026 1.58117 28.7409 1.81947 28.7409 2.11341V4.4451C28.7409 4.58626 28.6848 4.72163 28.585 4.82145L17.4004 16.006C17.3006 16.1058 17.1653 16.1619 17.0241 16.1619H10.907Z" fill="#1A1919"/>
<path d="M25.7368 9.71268C25.5956 9.71268 25.4602 9.76876 25.3604 9.86857L22.3074 12.9216C22.2076 13.0214 22.1515 13.1568 22.1515 13.2979V15.7698C22.1515 16.0638 22.3898 16.302 22.6838 16.302H28.2087C28.5026 16.302 28.7409 16.0638 28.7409 15.7698V10.2449C28.7409 9.95098 28.5026 9.71268 28.2087 9.71268H25.7368Z" fill="#1A1919"/>
<path d="M57.6857 0V17.282H55.4143V3.77735L49.7606 13.1837H49.4644L43.8107 3.80204V17.282H41.5146V0H44.1069L49.6125 9.13477L55.0934 0H57.6857Z" fill="#1A1919"/>
<path d="M69.6766 4.93772H71.8245V17.282H69.6766V15.5044C68.8043 16.9034 67.4711 17.603 65.677 17.603C64.2287 17.603 63.0683 17.1503 62.196 16.2451C61.3236 15.3234 60.8875 14.0807 60.8875 12.5171V4.93772H63.0354V12.3937C63.0354 13.3977 63.3069 14.1795 63.8501 14.7391C64.3932 15.2822 65.1421 15.5538 66.0968 15.5538C67.1666 15.5538 68.0307 15.2246 68.6891 14.5663C69.3474 13.8914 69.6766 12.8627 69.6766 11.4802V4.93772Z" fill="#1A1919"/>
<path d="M81.8099 7.01156H78.5263V13.7022C78.5263 14.3111 78.6415 14.7473 78.8719 15.0107C79.1188 15.2575 79.4892 15.3892 79.9829 15.4057C80.4767 15.4057 81.0857 15.3892 81.8099 15.3563V17.282C79.9335 17.5289 78.5592 17.3808 77.6869 16.8376C76.8146 16.278 76.3784 15.2328 76.3784 13.7022V7.01156H73.9342V4.93772H76.3784V2.12322L78.5263 1.48131V4.93772H81.8099V7.01156Z" fill="#1A1919"/>
<path d="M93.947 4.93772H96.0949V17.282H93.947V15.1588C92.8772 16.7882 91.3218 17.603 89.2809 17.603C87.5527 17.603 86.0796 16.9775 84.8616 15.7266C83.6436 14.4593 83.0347 12.9204 83.0347 11.1099C83.0347 9.29936 83.6436 7.76867 84.8616 6.51778C86.0796 5.25044 87.5527 4.61676 89.2809 4.61676C91.3218 4.61676 92.8772 5.43149 93.947 7.06093V4.93772ZM89.5524 15.5291C90.8033 15.5291 91.8485 15.1094 92.6879 14.27C93.5273 13.4141 93.947 12.3607 93.947 11.1099C93.947 9.85897 93.5273 8.81382 92.6879 7.97441C91.8485 7.11854 90.8033 6.6906 89.5524 6.6906C88.318 6.6906 87.2811 7.11854 86.4417 7.97441C85.6023 8.81382 85.1826 9.85897 85.1826 11.1099C85.1826 12.3607 85.6023 13.4141 86.4417 14.27C87.2811 15.1094 88.318 15.5291 89.5524 15.5291Z" fill="#1A1919"/>
<path d="M105.497 4.61676C106.945 4.61676 108.105 5.07762 108.978 5.99932C109.85 6.90457 110.286 8.139 110.286 9.70261V17.282H108.138V9.82605C108.138 8.82205 107.867 8.04848 107.324 7.50533C106.78 6.94572 106.032 6.66591 105.077 6.66591C104.007 6.66591 103.143 7.00332 102.485 7.67815C101.826 8.33651 101.497 9.35697 101.497 10.7395V17.282H99.3492V4.93772H101.497V6.71529C102.369 5.31627 103.703 4.61676 105.497 4.61676Z" fill="#1A1919"/>
<path d="M120 7.01156H116.716V13.7022C116.716 14.3111 116.832 14.7473 117.062 15.0107C117.309 15.2575 117.679 15.3892 118.173 15.4057C118.667 15.4057 119.276 15.3892 120 15.3563V17.282C118.124 17.5289 116.749 17.3808 115.877 16.8376C115.005 16.278 114.569 15.2328 114.569 13.7022V7.01156H112.124V4.93772H114.569V2.12322L116.716 1.48131V4.93772H120V7.01156Z" fill="#1A1919"/>
</svg>
